<svg width="66" height="65" viewBox="0 0 66 65" fill="none" xmlns="http://www.w3.org/2000/svg">
<path fill-rule="evenodd" clip-rule="evenodd" d="M40.5049 56.3993C40.779 56.2254 41.0781 56.0935 41.389 56.0004C53.1765 52.4681 61.7664 41.5372 61.7664 28.6C61.7664 12.8047 48.9617 0 33.1664 0C17.3711 0 4.56641 12.8047 4.56641 28.6C4.56641 39.8524 11.0647 49.587 20.5131 54.2558C20.5238 54.261 20.5194 54.2772 20.5076 54.2762V54.2762C20.5 54.2756 20.4942 54.2829 20.4965 54.2902L23.0865 62.492C23.7456 64.5791 26.2032 65.4754 28.0512 64.3026L40.5049 56.3993Z" fill="#C81912"/>
<path d="M41.3442 23.0316C42.0346 22.3413 42.0346 21.222 41.3443 20.5317L40.968 20.1554C40.2777 19.4651 39.1584 19.4651 38.4681 20.1554L33.1664 25.4572L27.8646 20.1554C27.1743 19.4651 26.055 19.4651 25.3647 20.1554L24.9885 20.5317C24.2981 21.222 24.2981 22.3413 24.9885 23.0316L30.2902 28.3333L24.9885 33.6351C24.2981 34.3254 24.2981 35.4447 24.9885 36.135L25.3647 36.5112C26.055 37.2016 27.1743 37.2016 27.8646 36.5112L33.1664 31.2095L38.4681 36.5112C39.1584 37.2016 40.2777 37.2016 40.968 36.5112L41.3443 36.135C42.0346 35.4447 42.0346 34.3254 41.3443 33.6351L36.0425 28.3333L41.3442 23.0316Z" fill="white"/>
</svg>
