<svg width="77" height="73" viewBox="0 0 77 73" fill="none" xmlns="http://www.w3.org/2000/svg">
<circle cx="28.2857" cy="31.1909" r="5.69098" fill="#C81912"/>
<circle cx="65.8333" cy="23" r="10.8333" fill="#C81912"/>
<path fill-rule="evenodd" clip-rule="evenodd" d="M27.1262 41.699C27.0162 41.1483 26.6134 40.7022 26.0768 40.5367V40.5367C25.4742 40.3509 24.8192 40.5538 24.4273 41.0479L22.175 43.8872C20.6324 45.8319 18.1589 46.7514 15.6865 46.5309C9.62672 45.9906 3.3717 46.475 -2.8502 48.1172C-31.6265 55.7124 -48.7973 85.1973 -41.2021 113.974C-33.6069 142.75 -4.12193 159.921 24.6544 152.326C53.4308 144.73 70.6015 115.245 63.0063 86.469C58.6511 69.9681 47.0982 57.2832 32.6086 50.8957C30.1955 49.8319 28.3343 47.7473 27.8177 45.1612L27.1262 41.699Z" fill="#C81912"/>
<circle cx="17.9566" cy="4.28958" r="2.90914" transform="rotate(-22.0902 17.9566 4.28958)" fill="#C81912"/>
</svg>
